<svg width="24" height="20" viewBox="0 0 24 20" fill="none" xmlns="http://www.w3.org/2000/svg">
<path d="M13.7207 19.5211C13.5802 19.3804 13.5013 19.1898 13.5013 18.9911C13.5013 18.7923 13.5802 18.6017 13.7207 18.4611L21.4394 10.7411L1.25066 10.7411C1.05175 10.7411 0.860981 10.662 0.720329 10.5214C0.579678 10.3807 0.50066 10.19 0.50066 9.99106C0.50066 9.79214 0.579678 9.60138 0.720329 9.46073C0.860981 9.32008 1.05175 9.24106 1.25066 9.24106L21.4394 9.24106L13.7207 1.52106C13.5882 1.37888 13.5161 1.19084 13.5195 0.996535C13.5229 0.802234 13.6016 0.616848 13.739 0.479435C13.8765 0.342022 14.0618 0.263311 14.2561 0.259882C14.4504 0.256454 14.6385 0.328577 14.7807 0.461057L23.7807 9.46106C23.9211 9.60168 24 9.79231 24 9.99106C24 10.1898 23.9211 10.3804 23.7807 10.5211L14.7807 19.5211C14.64 19.6615 14.4494 19.7404 14.2507 19.7404C14.0519 19.7404 13.8613 19.6615 13.7207 19.5211Z" fill="#484848"/>
</svg>
