<svg width="60" height="60" viewBox="0 0 60 60" fill="none" xmlns="http://www.w3.org/2000/svg">
<path d="M43.8889 55C43.1018 55 42.4426 54.7333 41.9111 54.2C41.3796 53.6667 41.113 53.0074 41.1111 52.2222V24.4444C41.1111 22.9167 40.5676 21.6093 39.4805 20.5222C38.3935 19.4352 37.0852 18.8907 35.5555 18.8889H25.8333C25.0463 18.8889 24.387 18.6222 23.8556 18.0889C23.3241 17.5556 23.0574 16.8963 23.0556 16.1111V7.77778C23.0556 6.99074 23.3222 6.33148 23.8556 5.8C24.3889 5.26852 25.0481 5.00185 25.8333 5H52.2222C53.0093 5 53.6694 5.26667 54.2028 5.8C54.7361 6.33333 55.0018 6.99259 55 7.77778V52.2222C55 53.0093 54.7333 53.6694 54.2 54.2028C53.6667 54.7361 53.0074 55.0018 52.2222 55H43.8889ZM25.8333 55C25.0463 55 24.387 54.7333 23.8556 54.2C23.3241 53.6667 23.0574 53.0074 23.0556 52.2222V27.2222C23.0556 26.4352 23.3222 25.7759 23.8556 25.2444C24.3889 24.713 25.0481 24.4463 25.8333 24.4444H32.7778C33.5648 24.4444 34.225 24.7111 34.7583 25.2444C35.2917 25.7778 35.5574 26.437 35.5555 27.2222V52.2222C35.5555 53.0093 35.2889 53.6694 34.7555 54.2028C34.2222 54.7361 33.563 55.0018 32.7778 55H25.8333ZM7.77778 55C6.99074 55 6.33148 54.7333 5.8 54.2C5.26852 53.6667 5.00185 53.0074 5 52.2222V27.2222C5 26.4352 5.26667 25.7759 5.8 25.2444C6.33333 24.713 6.99259 24.4463 7.77778 24.4444H14.7222C15.5093 24.4444 16.1694 24.7111 16.7028 25.2444C17.2361 25.7778 17.5018 26.437 17.5 27.2222V52.2222C17.5 53.0093 17.2333 53.6694 16.7 54.2028C16.1667 54.7361 15.5074 55.0018 14.7222 55H7.77778Z" fill="white"/>
</svg>
