<svg width="60" height="60" viewBox="0 0 60 60" fill="none" xmlns="http://www.w3.org/2000/svg">
<path fill-rule="evenodd" clip-rule="evenodd" d="M32.9294 5.21107C36.9851 5.8516 40.679 7.91864 43.3465 11.0402C46.0139 14.1617 47.4796 18.1328 47.4799 22.2388V37.7601C47.4799 42.3324 45.6635 46.7174 42.4304 49.9505C39.1973 53.1837 34.8123 55 30.2399 55C25.6676 55 21.2826 53.1837 18.0495 49.9505C14.8163 46.7174 13 42.3324 13 37.7601V22.2388C13.0002 19.7475 13.5403 17.2858 14.5832 15.0232C15.626 12.7607 17.1469 10.751 19.041 9.13269C20.9352 7.51434 23.1575 6.32574 25.5551 5.64874C27.9527 4.97174 30.4685 4.82242 32.9294 5.21107ZM28.2507 24.6948C28.2507 25.2224 28.4603 25.7284 28.8333 26.1014C29.2064 26.4745 29.7124 26.6841 30.2399 26.6841C30.7675 26.6841 31.2735 26.4745 31.6465 26.1014C32.0196 25.7284 32.2292 25.2224 32.2292 24.6948V16.738C32.2292 16.2104 32.0196 15.7044 31.6465 15.3314C31.2735 14.9583 30.7675 14.7487 30.2399 14.7487C29.7124 14.7487 29.2064 14.9583 28.8333 15.3314C28.4603 15.7044 28.2507 16.2104 28.2507 16.738V24.6948Z" fill="white"/>
</svg>
