<svg width="60" height="60" viewBox="0 0 60 60" fill="none" xmlns="http://www.w3.org/2000/svg">
<path d="M35 32.5H50C50.663 32.5 51.2989 32.2366 51.7678 31.7678C52.2366 31.2989 52.5 30.663 52.5 30V22.5C52.5 21.837 52.2366 21.2011 51.7678 20.7322C51.2989 20.2634 50.663 20 50 20H42.5L40 17.5H35C34.337 17.5 33.7011 17.7634 33.2322 18.2322C32.7634 18.7011 32.5 19.337 32.5 20V22.5H20V17.5H25C25.663 17.5 26.2989 17.2366 26.7678 16.7678C27.2366 16.2989 27.5 15.663 27.5 15V7.5C27.5 6.83696 27.2366 6.20107 26.7678 5.73223C26.2989 5.26339 25.663 5 25 5H17.5L15 2.5H10C9.33696 2.5 8.70107 2.76339 8.23223 3.23223C7.76339 3.70107 7.5 4.33696 7.5 5V15C7.5 15.663 7.76339 16.2989 8.23223 16.7678C8.70107 17.2366 9.33696 17.5 10 17.5H15V50H32.5V52.5C32.5 53.163 32.7634 53.7989 33.2322 54.2678C33.7011 54.7366 34.337 55 35 55H50C50.663 55 51.2989 54.7366 51.7678 54.2678C52.2366 53.7989 52.5 53.163 52.5 52.5V45C52.5 44.337 52.2366 43.7011 51.7678 43.2322C51.2989 42.7634 50.663 42.5 50 42.5H42.5L40 40H35C34.337 40 33.7011 40.2634 33.2322 40.7322C32.7634 41.2011 32.5 41.837 32.5 42.5V45H20V27.5H32.5V30C32.5 30.663 32.7634 31.2989 33.2322 31.7678C33.7011 32.2366 34.337 32.5 35 32.5Z" fill="white"/>
</svg>
