<svg width="60" height="60" viewBox="0 0 60 60" fill="none" xmlns="http://www.w3.org/2000/svg">
<path d="M13.75 31L4 21.25L13.75 11.5L23.5 21.25L13.75 31ZM22.5 55V42.5C19.9583 42.2917 17.4375 41.9892 14.9375 41.5925C12.4375 41.1958 9.95833 40.665 7.5 40C5.04167 39.335 5.25 34.0417 8.75 35C12.25 35.9583 15.7608 36.615 19.2825 36.97C22.8042 37.325 26.3767 37.5017 30 37.5C33.6233 37.4983 37.1967 37.3208 40.72 36.9675C44.2433 36.6142 47.7533 35.9583 51.25 35C54.7467 34.0417 54.9583 39.3333 52.5 40C50.0417 40.6667 47.5625 41.1983 45.0625 41.595C42.5625 41.9917 40.0417 42.2933 37.5 42.5V55H22.5ZM30 17.5C27.9167 17.5 26.1458 16.7708 24.6875 15.3125C23.2292 13.8542 22.5 12.0833 22.5 10C22.5 7.91667 23.2292 6.14583 24.6875 4.6875C26.1458 3.22917 27.9167 2.5 30 2.5C32.0833 2.5 33.8542 3.22917 35.3125 4.6875C36.7708 6.14583 37.5 7.91667 37.5 10C37.5 12.0833 36.7708 13.8542 35.3125 15.3125C33.8542 16.7708 32.0833 17.5 30 17.5ZM30 35C28.625 35 27.4483 34.5108 26.47 33.5325C25.4917 32.5542 25.0017 31.3767 25 30C24.9983 28.6233 25.4883 27.4467 26.47 26.47C27.4517 25.4933 28.6283 25.0033 30 25C31.3717 24.9967 32.5492 25.4867 33.5325 26.47C34.5158 27.4533 35.005 28.63 35 30C34.995 31.37 34.5058 32.5475 33.5325 33.5325C32.5592 34.5175 31.3817 35.0067 30 35ZM42.625 30L38.375 22.5L42.625 15H51.125L55.375 22.5L51.125 30H42.625Z" fill="white"/>
</svg>
