<svg width="60" height="60" viewBox="0 0 60 60" fill="none" xmlns="http://www.w3.org/2000/svg">
<path fill-rule="evenodd" clip-rule="evenodd" d="M38.7919 40.3505C38.6882 40.6014 38.5873 40.8535 38.4894 41.1068C33.078 42.915 27.2254 42.915 21.814 41.1068C21.7162 40.8535 21.6153 40.6014 21.5115 40.3505C21.2241 39.6546 21.0789 39.3037 20.8278 38.983C20.5797 38.6593 20.1441 38.3326 19.2728 37.6822C16.2221 35.3981 13.9676 32.2118 12.829 28.5748C11.6904 24.9378 11.7255 21.0348 12.9291 17.4188C14.1327 13.8029 16.444 10.6575 19.5352 8.42849C22.6264 6.1995 26.3407 5 30.1517 5C33.9627 5 37.6771 6.1995 40.7683 8.42849C43.8595 10.6575 46.1707 13.8029 47.3743 17.4188C48.578 21.0348 48.613 24.9378 47.4744 28.5748C46.3358 32.2118 44.0814 35.3981 41.0306 37.6822C40.1594 38.3326 39.7237 38.6593 39.4757 38.983C39.2246 39.3037 39.0824 39.6516 38.7919 40.3505ZM23.6474 47.8532C23.9106 49.4475 24.0588 51.063 24.0951 52.6876C24.0981 52.9024 24.1598 53.1122 24.2733 53.2946C24.3869 53.4769 24.5481 53.6248 24.7395 53.7222C26.4199 54.5625 28.2729 55 30.1517 55C32.0305 55 33.8835 54.5625 35.564 53.7222C35.7554 53.6248 35.9165 53.4769 36.0301 53.2946C36.1437 53.1122 36.2053 52.9024 36.2083 52.6876C36.2446 51.063 36.3929 49.4505 36.6561 47.8532C32.3645 48.7335 27.9389 48.7335 23.6474 47.8532Z" fill="white"/>
</svg>
