<svg width="60" height="60" viewBox="0 0 60 60" fill="none" xmlns="http://www.w3.org/2000/svg">
<path d="M22.5 7.5H10C9.33696 7.5 8.70107 7.76339 8.23223 8.23223C7.76339 8.70107 7.5 9.33696 7.5 10V22.5C7.5 23.163 7.76339 23.7989 8.23223 24.2678C8.70107 24.7366 9.33696 25 10 25H22.5C23.163 25 23.7989 24.7366 24.2678 24.2678C24.7366 23.7989 25 23.163 25 22.5V10C25 9.33696 24.7366 8.70107 24.2678 8.23223C23.7989 7.76339 23.163 7.5 22.5 7.5ZM22.5 35H10C9.33696 35 8.70107 35.2634 8.23223 35.7322C7.76339 36.2011 7.5 36.837 7.5 37.5V50C7.5 50.663 7.76339 51.2989 8.23223 51.7678C8.70107 52.2366 9.33696 52.5 10 52.5H22.5C23.163 52.5 23.7989 52.2366 24.2678 51.7678C24.7366 51.2989 25 50.663 25 50V37.5C25 36.837 24.7366 36.2011 24.2678 35.7322C23.7989 35.2634 23.163 35 22.5 35ZM43.75 25C44.8991 25 46.0369 24.7737 47.0985 24.3339C48.1601 23.8942 49.1247 23.2497 49.9372 22.4372C50.7497 21.6247 51.3942 20.6601 51.8339 19.5985C52.2737 18.5369 52.5 17.3991 52.5 16.25C52.5 15.1009 52.2737 13.9631 51.8339 12.9015C51.3942 11.8399 50.7497 10.8753 49.9372 10.0628C49.1247 9.2503 48.1601 8.60578 47.0985 8.16605C46.0369 7.72633 44.8991 7.5 43.75 7.5C41.4294 7.5 39.2038 8.42187 37.5628 10.0628C35.9219 11.7038 35 13.9294 35 16.25C35 18.5706 35.9219 20.7962 37.5628 22.4372C39.2038 24.0781 41.4294 25 43.75 25ZM50 35H37.5C36.837 35 36.2011 35.2634 35.7322 35.7322C35.2634 36.2011 35 36.837 35 37.5V50C35 50.663 35.2634 51.2989 35.7322 51.7678C36.2011 52.2366 36.837 52.5 37.5 52.5H50C50.663 52.5 51.2989 52.2366 51.7678 51.7678C52.2366 51.2989 52.5 50.663 52.5 50V37.5C52.5 36.837 52.2366 36.2011 51.7678 35.7322C51.2989 35.2634 50.663 35 50 35Z" fill="white" stroke="white" stroke-width="4" stroke-linejoin="round"/>
</svg>
