<svg width="60" height="60" viewBox="0 0 60 60" fill="none" xmlns="http://www.w3.org/2000/svg">
<g clip-path="url(#clip0_592_75)">
<path d="M16.3327 31.334H43.666V36.4673H46.3327V28.6673H31.3327V23.334H28.666V28.6673H13.666V36.4673H16.3327V31.334Z" fill="white"/>
<path d="M23.334 38.334H6.66732C4.82637 38.334 3.33398 39.8264 3.33398 41.6673V51.6673C3.33398 53.5083 4.82637 55.0007 6.66732 55.0007H23.334C25.1749 55.0007 26.6673 53.5083 26.6673 51.6673V41.6673C26.6673 39.8264 25.1749 38.334 23.334 38.334Z" fill="white"/>
<path d="M53.334 38.334H36.6673C34.8264 38.334 33.334 39.8264 33.334 41.6673V51.6673C33.334 53.5083 34.8264 55.0007 36.6673 55.0007H53.334C55.1749 55.0007 56.6673 53.5083 56.6673 51.6673V41.6673C56.6673 39.8264 55.1749 38.334 53.334 38.334Z" fill="white"/>
<path d="M38.334 5H21.6673C19.8264 5 18.334 6.49238 18.334 8.33333V18.3333C18.334 20.1743 19.8264 21.6667 21.6673 21.6667H38.334C40.1749 21.6667 41.6673 20.1743 41.6673 18.3333V8.33333C41.6673 6.49238 40.1749 5 38.334 5Z" fill="white"/>
</g>
<defs>
<clipPath id="clip0_592_75">
<rect width="60" height="60" fill="white"/>
</clipPath>
</defs>
</svg>
