<svg width="60" height="60" viewBox="0 0 60 60" fill="none" xmlns="http://www.w3.org/2000/svg">
<path d="M25 5C19.6957 5 14.6086 7.10714 10.8579 10.8579C7.10714 14.6086 5 19.6957 5 25C5 30.3043 7.10714 35.3914 10.8579 39.1421C14.6086 42.8929 19.6957 45 25 45C30.3043 45 35.3914 42.8929 39.1421 39.1421C42.8929 35.3914 45 30.3043 45 25C45 19.6957 42.8929 14.6086 39.1421 10.8579C35.3914 7.10714 30.3043 5 25 5Z" fill="white"/>
<path fill-rule="evenodd" clip-rule="evenodd" d="M54.268 54.268C53.7992 54.7367 53.1634 55 52.5005 55C51.8376 55 51.2018 54.7367 50.733 54.268L41.983 45.518C41.5276 45.0465 41.2756 44.415 41.2813 43.7595C41.287 43.104 41.55 42.477 42.0135 42.0135C42.477 41.55 43.104 41.287 43.7595 41.2813C44.415 41.2756 45.0465 41.5276 45.518 41.983L54.268 50.733C54.7367 51.2018 55 51.8376 55 52.5005C55 53.1634 54.7367 53.7992 54.268 54.268Z" fill="white"/>
</svg>
