<svg width="60" height="60" viewBox="0 0 60 60" fill="none" xmlns="http://www.w3.org/2000/svg">
<path d="M10 15V40H22.5V30C22.5 28.6739 23.0268 27.4021 23.9645 26.4645C24.9021 25.5268 26.1739 25 27.5 25H40C41.3261 25 42.5979 25.5268 43.5355 26.4645C44.4732 27.4021 45 28.6739 45 30V40H50V15H10ZM0 50V45H10C8.67392 45 7.40215 44.4732 6.46447 43.5355C5.52678 42.5979 5 41.3261 5 40V15C5 13.6739 5.52678 12.4021 6.46447 11.4645C7.40215 10.5268 8.67392 10 10 10H50C51.3261 10 52.5979 10.5268 53.5355 11.4645C54.4732 12.4021 55 13.6739 55 15V40C55 41.3261 54.4732 42.5979 53.5355 43.5355C52.5979 44.4732 51.3261 45 50 45H60V50H45C45 51.3261 44.4732 52.5979 43.5355 53.5355C42.5979 54.4732 41.3261 55 40 55H27.5C26.1739 55 24.9021 54.4732 23.9645 53.5355C23.0268 52.5979 22.5 51.3261 22.5 50H0ZM28.75 50C28.4185 50 28.1005 50.1317 27.8661 50.3661C27.6317 50.6005 27.5 50.9185 27.5 51.25C27.5 51.5815 27.6317 51.8995 27.8661 52.1339C28.1005 52.3683 28.4185 52.5 28.75 52.5C29.0815 52.5 29.3995 52.3683 29.6339 52.1339C29.8683 51.8995 30 51.5815 30 51.25C30 50.9185 29.8683 50.6005 29.6339 50.3661C29.3995 50.1317 29.0815 50 28.75 50ZM38.75 50C38.4185 50 38.1005 50.1317 37.8661 50.3661C37.6317 50.6005 37.5 50.9185 37.5 51.25C37.5 51.5815 37.6317 51.8995 37.8661 52.1339C38.1005 52.3683 38.4185 52.5 38.75 52.5C39.0815 52.5 39.3995 52.3683 39.6339 52.1339C39.8683 51.8995 40 51.5815 40 51.25C40 50.9185 39.8683 50.6005 39.6339 50.3661C39.3995 50.1317 39.0815 50 38.75 50ZM32.5 50V52.5H35V50H32.5ZM27.5 30V47.5H40V30H27.5Z" fill="white"/>
</svg>
