<svg width="60" height="60" viewBox="0 0 60 60" fill="none" xmlns="http://www.w3.org/2000/svg">
<path d="M15.3584 23.2428H26.416C26.782 23.2428 27.0884 23.1185 27.3353 22.8699C27.5839 22.6213 27.7082 22.3131 27.7082 21.9454C27.7082 21.5777 27.5839 21.2704 27.3353 21.0235C27.0867 20.7766 26.7794 20.6532 26.4134 20.6532H15.3584C14.9907 20.6532 14.6834 20.7775 14.4365 21.0261C14.1879 21.2747 14.0636 21.582 14.0636 21.948C14.0636 22.314 14.1879 22.6213 14.4365 22.8699C14.6851 23.1185 14.9924 23.2428 15.3584 23.2428ZM9.1822 45.2544C7.99099 45.2544 6.99658 44.8556 6.19898 44.058C5.40139 43.2604 5.00173 42.2651 5 41.0722V13.1822C5 11.991 5.39966 10.9966 6.19898 10.199C6.99831 9.40139 7.99271 9.00173 9.1822 9H49.4893C50.0521 9 50.5122 9.16573 50.8696 9.4972C51.2269 9.82867 51.4056 10.2706 51.4056 10.8231C51.4056 11.3893 51.2278 11.8391 50.8722 12.1723C50.5165 12.5055 50.0556 12.6634 49.4893 12.6462C49.277 12.6254 49.1846 12.6099 49.2122 12.5995C49.2399 12.5892 49.1768 12.5849 49.0232 12.5866C45.9053 12.5866 43.2665 13.6656 41.1068 15.8236C38.9488 17.985 37.8698 20.6239 37.8698 23.74C37.8698 24.5013 37.9389 25.2282 38.077 25.9204C38.2151 26.6127 38.4076 27.2808 38.6544 27.9248H35.7774C33.7575 27.9248 32.0397 28.6318 30.6241 30.0457C29.2084 31.4596 28.5023 33.1756 28.5058 35.1938V35.9914C27.3629 36.8201 26.4229 37.8084 25.6857 38.9565C24.9486 40.1045 24.4246 41.3458 24.1138 42.6803C23.9636 43.3778 23.6244 43.9812 23.0961 44.4905C22.5678 44.9998 21.9524 45.2544 21.2497 45.2544H9.1822ZM34.9798 48.4396C35.9121 48.4396 36.7097 48.109 37.3726 47.4478C38.0355 46.7866 38.367 45.989 38.367 45.055C38.367 44.121 38.0347 43.3243 37.37 42.6648C36.7053 42.0053 35.9077 41.6738 34.9772 41.6704C34.0467 41.6669 33.2491 41.9984 32.5844 42.6648C31.9198 43.3312 31.5883 44.1288 31.59 45.0576C31.5917 45.9864 31.9232 46.784 32.5844 47.4504C33.2456 48.1168 34.0432 48.4482 34.9772 48.4448M49.0232 27.1272C49.9555 27.1272 50.7531 26.7957 51.416 26.1328C52.0789 25.4699 52.4104 24.6723 52.4104 23.74C52.4104 22.8077 52.0789 22.0101 51.416 21.3472C50.7531 20.6843 49.9555 20.3537 49.0232 20.3554C48.0909 20.3571 47.2934 20.6877 46.6304 21.3472C45.9675 22.0067 45.636 22.8043 45.636 23.74C45.636 24.6757 45.9675 25.4733 46.6304 26.1328C47.2934 26.7923 48.0909 27.1237 49.0232 27.1272ZM34.9798 51.0292C33.319 51.0292 31.9077 50.4491 30.7458 49.289C29.5839 48.1289 29.003 46.7175 29.003 45.055C29.003 43.6048 29.4476 42.3437 30.3366 41.2716C31.2257 40.1995 32.3419 39.5202 33.685 39.2336V35.1938C33.685 34.6016 33.8853 34.1053 34.2858 33.7048C34.6863 33.3043 35.1835 33.104 35.7774 33.104H47.7284V29.5614C46.3835 29.2766 45.2674 28.5981 44.3801 27.526C43.4927 26.4539 43.0481 25.1919 43.0464 23.74C43.0464 22.0809 43.6273 20.6705 44.7892 19.5086C45.9511 18.3467 47.3624 17.7658 49.0232 17.7658C50.684 17.7658 52.0953 18.3467 53.2572 19.5086C54.4191 20.6705 55 22.0809 55 23.74C55 25.1902 54.5555 26.4522 53.6664 27.526C52.7773 28.5998 51.6611 29.2783 50.318 29.5614V33.6012C50.318 34.1934 50.1177 34.6897 49.7172 35.0902C49.3167 35.4925 48.8195 35.6936 48.2256 35.6936H36.2746V39.2336C37.6195 39.5184 38.7356 40.1978 39.623 41.2716C40.5103 42.3454 40.9549 43.6065 40.9566 45.055C40.9566 46.7158 40.3757 48.1271 39.2138 49.289C38.0502 50.4509 36.6389 51.0318 34.9798 51.0318M26.4134 33.6012C26.7811 33.6012 27.0884 33.4769 27.3353 33.2283C27.5839 32.9797 27.7082 32.6715 27.7082 32.3038C27.7082 31.9361 27.5839 31.6288 27.3353 31.3819C27.0867 31.135 26.7794 31.0116 26.4134 31.0116H15.3584C14.9907 31.0116 14.6834 31.1359 14.4365 31.3845C14.1879 31.6331 14.0636 31.9413 14.0636 32.309C14.0636 32.6767 14.1879 32.984 14.4365 33.2309C14.6851 33.4778 14.9924 33.6012 15.3584 33.6012H26.4134Z" fill="white"/>
</svg>
